HIERARCHY
ROOT Hips
{
	OFFSET	0.00	0.00	0.00
	CHANNELS 6 Xposition Yposition Zposition Zrotation Xrotation Yrotation
	JOINT LeftUpLeg
	{
		OFFSET	 0.126116	-0.014019	-0.065224
		CHANNELS 3 Zrotation Xrotation Yrotation
		JOINT LeftLeg
		{
			OFFSET	 0.000000	 0.000000	 0.569914
			CHANNELS 3 Zrotation Xrotation Yrotation
			JOINT LeftFoot
			{
				OFFSET	 0.000000	 0.000000	 0.544423
				CHANNELS 3 Zrotation Xrotation Yrotation
				JOINT LeftToeBase
				{
					OFFSET	 0.000000	 0.000000	 0.207117
					CHANNELS 3 Zrotation Xrotation Yrotation
					End Site
					{
						OFFSET	 0.000000	 0.000000	 0.207117
					}
				}
			}
		}
	}
	JOINT RightUpLeg
	{
		OFFSET	-0.124023	-0.008373	-0.065224
		CHANNELS 3 Zrotation Xrotation Yrotation
		JOINT RightLeg
		{
			OFFSET	 0.000000	 0.000000	 0.570047
			CHANNELS 3 Zrotation Xrotation Yrotation
			JOINT RightFoot
			{
				OFFSET	 0.000000	 0.000000	 0.544354
				CHANNELS 3 Zrotation Xrotation Yrotation
				JOINT RightToeBase
				{
					OFFSET	 0.000000	 0.000000	 0.207540
					CHANNELS 3 Zrotation Xrotation Yrotation
					End Site
					{
						OFFSET	 0.000000	 0.000000	 0.207540
					}
				}
			}
		}
	}
	JOINT Spine
	{
		OFFSET	 0.000184	-0.007763	 0.117403
		CHANNELS 3 Zrotation Xrotation Yrotation
		JOINT Spine1
		{
			OFFSET	 0.000000	 0.000000	 0.137269
			CHANNELS 3 Zrotation Xrotation Yrotation
			JOINT Spine2
			{
				OFFSET	 0.000000	 0.000000	 0.156879
				CHANNELS 3 Zrotation Xrotation Yrotation
				JOINT LeftShoulder
				{
					OFFSET	 0.080501	-0.002496	 0.160144
					CHANNELS 3 Zrotation Xrotation Yrotation
					JOINT LeftArm
					{
						OFFSET	 0.000000	 0.000000	 0.164363
						CHANNELS 3 Zrotation Xrotation Yrotation
						JOINT LeftForeArm
						{
							OFFSET	 0.000000	 0.000000	 0.364576
							CHANNELS 3 Zrotation Xrotation Yrotation
							JOINT LeftHand
							{
								OFFSET	 0.000000	 0.000000	 0.360812
								CHANNELS 3 Zrotation Xrotation Yrotation
								JOINT LeftHandIndex1
								{
									OFFSET	 0.000000	 0.000000	 0.086006
									CHANNELS 3 Zrotation Xrotation Yrotation
									JOINT LeftHandIndex2
									{
										OFFSET	 0.000000	 0.000000	 0.047236
										CHANNELS 3 Zrotation Xrotation Yrotation
										JOINT LeftHandIndex3
										{
											OFFSET	-0.004284	-0.000551	 0.038166
											CHANNELS 3 Zrotation Xrotation Yrotation
											End Site
											{
												OFFSET	-0.004284	-0.000551	 0.038166
											}
										}
									}
								}
							}
						}
					}
				}
				JOINT Neck
				{
					OFFSET	 0.000000	 0.000000	 0.176489
					CHANNELS 3 Zrotation Xrotation Yrotation
					JOINT Head
					{
						OFFSET	 0.000000	-0.001747	 0.077940
						CHANNELS 3 Zrotation Xrotation Yrotation
						End Site
						{
							OFFSET	 0.000000	-0.001747	 0.077940
						}
					}
				}
				JOINT RightShoulder
				{
					OFFSET	-0.080363	 0.000306	 0.159706
					CHANNELS 3 Zrotation Xrotation Yrotation
					JOINT RightArm
					{
						OFFSET	 0.000000	 0.000000	 0.164196
						CHANNELS 3 Zrotation Xrotation Yrotation
						JOINT RightForeArm
						{
							OFFSET	 0.000000	 0.000000	 0.365611
							CHANNELS 3 Zrotation Xrotation Yrotation
							JOINT RightHand
							{
								OFFSET	 0.000000	 0.000000	 0.360648
								CHANNELS 3 Zrotation Xrotation Yrotation
								JOINT RightHandIndex1
								{
									OFFSET	 0.000000	 0.000000	 0.069977
									CHANNELS 3 Zrotation Xrotation Yrotation
									JOINT RightHandIndex2
									{
										OFFSET	 0.000000	 0.000000	 0.052305
										CHANNELS 3 Zrotation Xrotation Yrotation
										JOINT RightHandIndex3
										{
											OFFSET	 0.009002	-0.000782	 0.042196
											CHANNELS 3 Zrotation Xrotation Yrotation
											End Site
											{
												OFFSET	 0.009002	-0.000782	 0.042196
											}
										}
									}
								}
							}
						}
					}
				}
			}
		}
	}
}
MOTION
Frames:    5
Frame Time: 0.03333334
-0.043018	 0.263102	 0.975027	 2.775578	 34.634610	-7.795324	-41.208020	-88.206480	 140.437100	 10.794580	-78.479660	 10.990820	-59.776630	 83.965480	 65.606510	-2.385832	 28.452790	-0.000001	 99.335330	-75.947040	-88.607350	-27.689930	-81.514020	-22.321180	 85.704150	 79.582950	-78.332660	 2.384659	 28.388700	-0.000001	 0.116907	 15.843650	 0.696999	-2.320124	 23.365840	 2.053683	-3.829778	-1.086169	 3.438578	-99.176680	 68.203510	 156.745000	 9.236367	-5.078956	-38.275140	-5.255861	 10.770380	-33.500320	-31.195920	-37.897230	-21.591180	-2.027600	 6.559038	 9.033609	-5.188889	 0.308190	 3.541030	-5.234859	 0.342567	 0.430617	 0.419148	 17.930030	-6.171148	-2.508802	-26.964870	-1.890399	 97.451090	 64.665900	-159.077900	-5.676819	 4.657340	 55.952460	-6.797263	 0.380746	 24.020600	 13.546340	-37.214160	 16.166980	 1.803333	 3.979147	-15.098590	 4.898592	 3.004813	-9.310344	 5.224449	 0.395017	 2.014677
-0.043440	 0.261028	 0.983101	 2.413891	 33.516800	-6.953256	-34.664540	-86.098870	 147.139700	 9.417882	-77.690580	 9.612601	-60.287420	 83.749100	 66.079010	-2.385832	 28.452790	-0.000001	 91.112100	-76.582340	-97.157250	-26.056070	-80.509100	-20.647860	 84.163450	 79.851000	-76.504760	 2.384659	 28.388700	-0.000001	 0.401565	 16.194820	 0.465734	-1.891797	 24.620040	 1.517473	-3.900598	-2.863513	 2.978864	-98.624580	 68.631130	 157.809600	 8.612809	-2.492216	-40.029500	-4.807531	 10.590240	-33.860970	-32.585750	-38.447960	-22.768860	-2.027600	 6.559038	 9.033609	-5.188889	 0.308190	 3.541030	-5.234859	 0.342567	 0.430617	-0.378370	 12.273440	-4.359526	-2.966220	-21.347380	-2.542086	 97.129050	 64.250660	-160.257700	-6.478780	 4.540154	 57.234400	-6.063421	 0.714506	 24.217170	 14.363720	-37.320270	 18.289770	 1.803333	 3.979147	-15.098590	 4.898592	 3.004813	-9.310344	 5.224449	 0.395017	 2.014677
-0.043344	 0.259221	 0.996352	 2.004287	 32.063690	-6.049257	-30.096140	-83.207740	 151.992800	 8.051009	-76.111620	 8.223437	-58.877480	 83.329850	 64.388890	-2.385833	 28.452760	 0.000004	 78.710790	-76.812650	-109.810500	-23.752210	-78.734500	-18.271460	 80.566380	 80.156960	-72.591060	 2.384659	 28.388700	-0.000001	 0.574564	 16.751800	 0.299213	-1.399772	 25.629910	 0.986676	-4.059569	-4.882665	 2.422130	-97.515020	 70.130710	 159.045000	 8.465165	 1.393989	-42.191450	-4.234879	 10.292350	-34.171770	-34.549080	-39.099560	-24.967140	-2.027600	 6.559038	 9.033609	-5.188889	 0.308190	 3.541030	-5.234859	 0.342567	 0.430617	-0.944712	 4.694149	-2.720424	-3.319696	-13.944900	-3.083534	 96.666020	 64.328780	-161.351200	-7.298809	 5.374311	 58.191220	-6.031934	 0.746581	 24.741030	 14.537730	-37.046910	 19.878030	 1.803333	 3.979147	-15.098590	 4.898592	 3.004813	-9.310344	 5.224449	 0.395017	 2.014677
-0.042068	 0.258795	 1.013725	 1.547734	 30.200160	-4.989550	-26.503200	-79.628510	 155.872400	 7.320152	-73.864050	 7.435389	-56.266730	 82.885730	 61.225150	-2.385833	 28.452760	 0.000004	 63.164780	-76.125430	-125.554600	-21.860360	-76.233190	-16.259640	 75.891090	 80.396580	-67.398720	 2.384659	 28.388700	-0.000001	 0.667390	 17.522580	 0.082869	-0.852936	 26.336870	 0.368291	-4.197958	-6.966800	 1.957362	-95.368410	 73.576430	 160.147100	 9.295196	 7.271432	-45.553020	-3.622904	 9.820437	-34.112770	-36.893440	-39.905240	-27.425240	-2.027600	 6.559038	 9.033609	-5.188889	 0.308190	 3.541030	-5.234859	 0.342567	 0.430617	-1.310580	-3.781609	-2.155424	-3.372159	-5.751827	-2.774623	 95.562840	 66.337940	-162.512800	-8.441872	 8.782819	 59.748600	-6.580414	 0.510177	 25.466730	 15.033010	-37.746540	 21.234130	 1.803333	 3.979147	-15.098590	 4.898592	 3.004813	-9.310344	 5.224449	 0.395017	 2.014677
-0.039071	 0.258241	 1.035978	 1.290249	 27.925860	-3.883924	-24.004050	-75.176930	 158.909500	 6.936270	-70.789900	 7.012561	-50.842910	 82.322380	 54.989860	-2.385833	 28.452750	 0.000004	 47.381530	-73.781330	-141.440600	-17.143990	-73.146840	-11.496430	 70.451200	 80.489590	-62.206980	 2.384659	 28.388700	-0.000001	 0.643120	 18.221500	-0.271789	-0.389212	 26.786090	-0.346319	-4.309744	-9.142606	 1.594806	-92.932440	 77.051030	 161.186800	 11.854640	 12.993310	-49.179480	-2.914599	 9.258423	-33.981560	-38.495100	-40.602170	-29.891640	-2.027600	 6.559038	 9.033609	-5.188889	 0.308190	 3.541030	-5.234859	 0.342567	 0.430617	-1.661586	-12.976820	-2.514836	-3.395912	 2.969896	-1.911096	 94.289530	 68.826770	-163.757100	-10.477610	 12.619450	 60.735960	-7.103951	 0.280563	 27.127000	 15.348260	-38.730870	 22.035300	 1.803333	 3.979147	-15.098590	 4.898592	 3.004813	-9.310344	 5.224449	 0.395017	 2.014677
